<svg xmlns="http://www.w3.org/2000/svg" width="512" height="384" viewBox="0 0 512 384">
  <defs>
    <linearGradient id="g" x1="0" y1="0" x2="1" y2="1">
      <stop offset="0" stop-color="#2F4F3E" stop-opacity="0.18"/>
      <stop offset="1" stop-color="#111111" stop-opacity="0.06"/>
    </linearGradient>
  </defs>
  <rect width="512" height="384" rx="32" fill="url(#g)"/>
  <path d="M116 230c36 8 72 8 108 0l40-10c22-6 44 3 58 22l22 30c8 11 21 18 35 18h45c18 0 33-15 33-33v-14c0-12-7-22-18-28l-120-64c-16-9-34-10-51-4l-74 26c-14 5-29 6-44 2l-34-9c-12-3-24 4-27 16l-6 24c-3 12 4 24 16 27z" fill="#2F4F3E" fill-opacity="0.20"/>
  <text x="28" y="64" font-family="ui-sans-serif, system-ui" font-size="28" fill="#111111" fill-opacity="0.55">Shoes</text>
</svg>
